<svg width="128" height="22" viewBox="0 0 128 22" fill="none" xmlns="http://www.w3.org/2000/svg">
<path d="M0.32 20.01C1.06 20.01 1.59 19.97 1.91 19.89C2.23 19.79 2.44 19.63 2.54 19.41C2.64 19.19 2.69 18.83 2.69 18.33V3.9C2.69 3.38 2.64 3.01 2.54 2.79C2.44 2.57 2.23 2.42 1.91 2.34C1.59 2.24 1.06 2.19 0.32 2.19V1.2H14.9V6.18H14.15C13.89 5.16 13.61 4.39 13.31 3.87C13.03 3.35 12.61 2.97 12.05 2.73C11.51 2.49 10.73 2.37 9.71 2.37H7.49C7.03 2.37 6.72 2.44 6.56 2.58C6.42 2.72 6.35 2.99 6.35 3.39V10.47H9.65C10.37 10.47 10.9 10.4 11.24 10.26C11.6 10.1 11.86 9.85 12.02 9.51C12.18 9.17 12.33 8.64 12.47 7.92H13.19V14.31H12.47C12.33 13.59 12.18 13.07 12.02 12.75C11.86 12.41 11.6 12.17 11.24 12.03C10.9 11.87 10.37 11.79 9.65 11.79H6.35V18.3C6.35 18.82 6.41 19.19 6.53 19.41C6.65 19.63 6.9 19.79 7.28 19.89C7.66 19.97 8.29 20.01 9.17 20.01V21H0.32V20.01ZM26.6771 21.36C23.4771 21.36 21.0971 20.44 19.5371 18.6C17.9771 16.76 17.1971 14.25 17.1971 11.07C17.1971 7.89 17.9771 5.39 19.5371 3.57C21.0971 1.75 23.4771 0.839998 26.6771 0.839998C29.8771 0.839998 32.2571 1.75 33.8171 3.57C35.3771 5.39 36.1571 7.89 36.1571 11.07C36.1571 14.25 35.3771 16.76 33.8171 18.6C32.2571 20.44 29.8771 21.36 26.6771 21.36ZM26.6771 20.13C28.4371 20.13 29.7671 19.36 30.6671 17.82C31.5871 16.28 32.0471 14.03 32.0471 11.07C32.0471 8.13 31.5871 5.9 30.6671 4.38C29.7671 2.84 28.4371 2.07 26.6771 2.07C24.9171 2.07 23.5771 2.84 22.6571 4.38C21.7571 5.9 21.3071 8.13 21.3071 11.07C21.3071 14.03 21.7571 16.28 22.6571 17.82C23.5771 19.36 24.9171 20.13 26.6771 20.13ZM37.6735 20.01C38.4135 20.01 38.9435 19.97 39.2635 19.89C39.5835 19.79 39.7935 19.63 39.8935 19.41C39.9935 19.19 40.0435 18.83 40.0435 18.33V3.9C40.0435 3.38 39.9935 3.01 39.8935 2.79C39.7935 2.57 39.5835 2.42 39.2635 2.34C38.9435 2.24 38.4135 2.19 37.6735 2.19V1.2H46.9435C49.1035 1.2 50.7335 1.62 51.8335 2.46C52.9335 3.3 53.4835 4.5 53.4835 6.06C53.4835 7.46 53.0635 8.59 52.2235 9.45C51.3835 10.29 50.2535 10.82 48.8335 11.04V11.1C50.0935 11.4 50.9835 11.96 51.5035 12.78C52.0235 13.58 52.3935 14.73 52.6135 16.23L52.7035 16.83C52.8435 17.79 53.1335 18.56 53.5735 19.14C54.0335 19.72 54.6535 20.01 55.4335 20.01V21H50.5435C49.9835 20.56 49.5535 19.64 49.2535 18.24L48.3535 14.1C48.1935 13.3 47.8735 12.72 47.3935 12.36C46.9135 11.98 46.2335 11.79 45.3535 11.79H43.7035V18.33C43.7035 18.83 43.7535 19.2 43.8535 19.44C43.9535 19.66 44.1635 19.81 44.4835 19.89C44.8035 19.97 45.3235 20.01 46.0435 20.01V21H37.6735V20.01ZM45.5035 10.59C46.9035 10.59 47.9335 10.25 48.5935 9.57C49.2735 8.89 49.6135 7.86 49.6135 6.48C49.6135 5.08 49.2735 4.05 48.5935 3.39C47.9135 2.71 46.8835 2.37 45.5035 2.37C44.7635 2.37 44.2735 2.47 44.0335 2.67C43.8135 2.85 43.7035 3.16 43.7035 3.6V10.59H45.5035ZM64.0672 20.01H64.9672C65.5672 20.01 65.9472 19.91 66.1072 19.71C66.2872 19.49 66.3772 19.06 66.3772 18.42V3.9C66.3772 3.38 66.3272 3.01 66.2272 2.79C66.1272 2.57 65.9172 2.42 65.5972 2.34C65.2972 2.26 64.7772 2.21 64.0372 2.19V1.2H70.3972L75.8872 15.51H75.9772L81.4372 1.2H87.5872V2.19C86.8472 2.21 86.3172 2.26 85.9972 2.34C85.6972 2.42 85.4972 2.57 85.3972 2.79C85.2972 3.01 85.2472 3.38 85.2472 3.9V18.33C85.2472 18.83 85.2972 19.2 85.3972 19.44C85.4972 19.66 85.7072 19.81 86.0272 19.89C86.3472 19.97 86.8672 20.01 87.5872 20.01V21H79.3972V20.01C80.1372 20.01 80.6672 19.97 80.9872 19.89C81.3072 19.79 81.5072 19.63 81.5872 19.41C81.6872 19.19 81.7372 18.83 81.7372 18.33V3.9H81.6772L75.2272 21H74.2972L67.7872 3.9H67.7272V18.42C67.7272 18.92 67.7472 19.27 67.7872 19.47C67.8472 19.67 67.9772 19.81 68.1772 19.89C68.3972 19.97 68.7472 20.01 69.2272 20.01H70.6072V21H64.0672V20.01ZM90.2614 20.01C91.0014 20.01 91.5314 19.97 91.8514 19.89C92.1714 19.79 92.3814 19.63 92.4814 19.41C92.5814 19.19 92.6314 18.83 92.6314 18.33V3.9C92.6314 3.38 92.5814 3.01 92.4814 2.79C92.3814 2.55 92.1714 2.39 91.8514 2.31C91.5314 2.23 91.0014 2.19 90.2614 2.19V1.2H104.931V6.21H104.151C103.911 5.19 103.651 4.42 103.371 3.9C103.091 3.36 102.671 2.97 102.111 2.73C101.571 2.49 100.791 2.37 99.7714 2.37H97.4314C96.9714 2.37 96.6614 2.44 96.5014 2.58C96.3614 2.72 96.2914 2.99 96.2914 3.39V9.99H99.2614C99.9614 9.99 100.481 9.92 100.821 9.78C101.181 9.62 101.431 9.37 101.571 9.03C101.731 8.69 101.881 8.16 102.021 7.44H102.771V13.8H102.021C101.881 13.08 101.731 12.56 101.571 12.24C101.431 11.92 101.181 11.69 100.821 11.55C100.481 11.39 99.9614 11.31 99.2614 11.31H96.2914V17.85C96.2914 18.45 96.3614 18.88 96.5014 19.14C96.6614 19.4 96.9814 19.58 97.4614 19.68C97.9614 19.78 98.7814 19.83 99.9214 19.83C101.061 19.83 101.951 19.69 102.591 19.41C103.251 19.13 103.761 18.69 104.121 18.09C104.481 17.49 104.821 16.62 105.141 15.48H105.891L105.531 21H90.2614V20.01ZM111.85 4.56H111.76V18.45C111.76 19.01 111.87 19.41 112.09 19.65C112.33 19.89 112.72 20.01 113.26 20.01H114.64V21H108.1V20.01H109C109.48 20.01 109.83 19.89 110.05 19.65C110.29 19.39 110.41 18.99 110.41 18.45V3.9C110.41 3.38 110.36 3.01 110.26 2.79C110.16 2.57 109.95 2.42 109.63 2.34C109.33 2.26 108.81 2.21 108.07 2.19V1.2H113.86L123.55 15.99H123.64V3.63C123.64 2.67 123.13 2.19 122.11 2.19H120.76V1.2H127.27V2.19H126.37C125.45 2.19 124.99 2.67 124.99 3.63V21.18H122.71L111.85 4.56Z" fill="#E5A601"/>
</svg>
