<svg width="477" height="63" viewBox="0 0 477 63" fill="none" xmlns="http://www.w3.org/2000/svg">
<path d="M46.55 2.25C46.69 2.25 46.76 2.39 46.76 2.67C46.76 2.95 46.69 3.09 46.55 3.09C44.87 3.09 43.26 3.83666 41.72 5.33C40.18 6.82333 38.9433 8.83 38.01 11.35L25.06 45.93C25.0133 46.1167 24.7567 46.21 24.29 46.21C23.8233 46.21 23.5667 46.1167 23.52 45.93L5.67 8.06C4.83 6.38 3.99 5.14333 3.15 4.35C2.31 3.51 1.37667 3.09 0.35 3.09C0.21 3.09 0.14 2.95 0.14 2.67C0.14 2.39 0.21 2.25 0.35 2.25C1.05 2.25 1.54 2.27333 1.82 2.32C2.75333 2.41333 3.96667 2.46 5.46 2.46C9.47333 2.46 12.88 2.41333 15.68 2.32C16.4267 2.27333 17.36 2.25 18.48 2.25C18.62 2.25 18.69 2.39 18.69 2.67C18.69 2.95 18.62 3.09 18.48 3.09C17.08 3.09 15.9833 3.39333 15.19 4C14.4433 4.56 14.07 5.37667 14.07 6.45C14.07 7.24333 14.3267 8.2 14.84 9.32L26.95 35.15L36.05 11.14C36.5167 9.83333 36.75 8.71333 36.75 7.78C36.75 6.33333 36.3067 5.19 35.42 4.35C34.58 3.51 33.3433 3.09 31.71 3.09C31.57 3.09 31.5 2.95 31.5 2.67C31.5 2.39 31.57 2.25 31.71 2.25L35.14 2.32C37.1 2.41333 38.85 2.46 40.39 2.46C41.2767 2.46 42.3733 2.41333 43.68 2.32L46.55 2.25ZM62.1009 40.33C62.1009 41.7767 62.2176 42.8267 62.4509 43.48C62.6843 44.1333 63.1276 44.5767 63.7809 44.81C64.4809 45.0433 65.5776 45.16 67.0709 45.16C67.2109 45.16 67.2809 45.3 67.2809 45.58C67.2809 45.86 67.2109 46 67.0709 46C65.5309 46 64.3176 45.9767 63.4309 45.93L58.1109 45.86L52.9309 45.93C51.9976 45.9767 50.7376 46 49.1509 46C49.0576 46 49.0109 45.86 49.0109 45.58C49.0109 45.3 49.0576 45.16 49.1509 45.16C50.6443 45.16 51.7409 45.0433 52.4409 44.81C53.1409 44.5767 53.6076 44.1333 53.8409 43.48C54.1209 42.78 54.2609 41.73 54.2609 40.33V7.92C54.2609 6.52 54.1209 5.49333 53.8409 4.84C53.6076 4.18666 53.1409 3.74333 52.4409 3.51C51.7409 3.23 50.6443 3.09 49.1509 3.09C49.0576 3.09 49.0109 2.95 49.0109 2.67C49.0109 2.39 49.0576 2.25 49.1509 2.25L52.9309 2.32C55.0776 2.41333 56.8043 2.46 58.1109 2.46C59.5576 2.46 61.3543 2.41333 63.5009 2.32L67.0709 2.25C67.2109 2.25 67.2809 2.39 67.2809 2.67C67.2809 2.95 67.2109 3.09 67.0709 3.09C65.6243 3.09 64.5509 3.23 63.8509 3.51C63.1509 3.79 62.6843 4.28 62.4509 4.98C62.2176 5.63333 62.1009 6.66 62.1009 8.06V40.33ZM85.2567 40.05C85.2567 41.5433 85.4201 42.64 85.7467 43.34C86.0734 43.9933 86.6801 44.46 87.5667 44.74C88.5001 45.02 89.9701 45.16 91.9767 45.16C92.1167 45.16 92.1867 45.3 92.1867 45.58C92.1867 45.86 92.1167 46 91.9767 46C90.0634 46 88.5701 45.9767 87.4967 45.93L81.4067 45.86L76.2967 45.93C75.3634 45.9767 74.1034 46 72.5167 46C72.3767 46 72.3067 45.86 72.3067 45.58C72.3067 45.3 72.3767 45.16 72.5167 45.16C74.0101 45.16 75.0834 45.0433 75.7367 44.81C76.4367 44.5767 76.9034 44.1333 77.1367 43.48C77.3701 42.78 77.4867 41.73 77.4867 40.33V7.92C77.4867 6.52 77.3701 5.49333 77.1367 4.84C76.9034 4.18666 76.4367 3.74333 75.7367 3.51C75.0367 3.23 73.9634 3.09 72.5167 3.09C72.3767 3.09 72.3067 2.95 72.3067 2.67C72.3067 2.39 72.3767 2.25 72.5167 2.25L76.2267 2.32C78.3734 2.41333 80.0767 2.46 81.3367 2.46C82.4567 2.46 83.7867 2.39 85.3267 2.25C85.9334 2.20333 86.7034 2.15666 87.6367 2.11C88.5701 2.06333 89.6434 2.04 90.8567 2.04C95.6167 2.04 99.3734 3.04333 102.127 5.05C104.88 7.01 106.257 10.0667 106.257 14.22C106.257 17.1133 105.51 19.5633 104.017 21.57C102.523 23.5767 100.587 25.0933 98.2067 26.12C95.8734 27.1467 93.4701 27.66 90.9967 27.66C89.7367 27.66 88.6401 27.5433 87.7067 27.31C87.6134 27.31 87.5667 27.1933 87.5667 26.96C87.5667 26.82 87.5901 26.68 87.6367 26.54C87.7301 26.4 87.8234 26.3533 87.9167 26.4C88.6167 26.5867 89.4101 26.68 90.2967 26.68C92.4434 26.68 94.2167 25.6767 95.6167 23.67C97.0634 21.6633 97.7867 18.8167 97.7867 15.13C97.7867 11.4433 96.9934 8.59666 95.4067 6.59C93.8667 4.58333 91.6034 3.58 88.6167 3.58C87.3101 3.58 86.4234 3.88333 85.9567 4.49C85.4901 5.09666 85.2567 6.28666 85.2567 8.06V40.05ZM150.434 21.43C154.354 21.8967 157.458 23.2033 159.744 25.35C162.078 27.4967 163.244 30.1567 163.244 33.33C163.244 35.7567 162.544 37.95 161.144 39.91C159.744 41.87 157.808 43.4333 155.334 44.6C152.861 45.72 150.108 46.28 147.074 46.28C145.768 46.28 144.274 46.21 142.594 46.07C141.941 46.0233 141.124 45.9767 140.144 45.93C139.211 45.8833 138.161 45.86 136.994 45.86L131.884 45.93C130.951 45.9767 129.691 46 128.104 46C127.964 46 127.894 45.86 127.894 45.58C127.894 45.3 127.964 45.16 128.104 45.16C129.458 45.16 130.484 45.0433 131.184 44.81C131.884 44.53 132.374 44.0633 132.654 43.41C132.981 42.71 133.144 41.6833 133.144 40.33V7.92C133.144 5.96 132.818 4.67666 132.164 4.07C131.511 3.41666 130.181 3.09 128.174 3.09C128.081 3.09 128.034 2.95 128.034 2.67C128.034 2.39 128.081 2.25 128.174 2.25L131.884 2.32C134.031 2.41333 135.734 2.46 136.994 2.46C138.301 2.46 139.654 2.39 141.054 2.25C141.521 2.20333 142.221 2.15666 143.154 2.11C144.088 2.06333 144.904 2.04 145.604 2.04C149.851 2.04 153.141 2.81 155.474 4.35C157.808 5.89 158.974 8.13 158.974 11.07C158.974 13.31 158.228 15.34 156.734 17.16C155.288 18.98 153.188 20.4033 150.434 21.43ZM144.554 3.58C143.201 3.58 142.268 3.90667 141.754 4.56C141.241 5.16666 140.984 6.33333 140.984 8.06V21.36L143.784 21.43C146.211 21.43 148.078 20.52 149.384 18.7C150.691 16.88 151.344 14.5467 151.344 11.7C151.344 9.04 150.761 7.03333 149.594 5.68C148.428 4.28 146.748 3.58 144.554 3.58ZM145.884 44.53C151.998 44.53 155.054 41.3567 155.054 35.01C155.054 31.4167 154.191 28.57 152.464 26.47C150.738 24.37 148.124 23.32 144.624 23.32C143.271 23.32 142.058 23.3667 140.984 23.46V40.33C140.984 41.87 141.288 42.9667 141.894 43.62C142.501 44.2267 143.831 44.53 145.884 44.53ZM192.485 46.84C188.145 46.84 184.272 45.8367 180.865 43.83C177.505 41.7767 174.892 39.0233 173.025 35.57C171.205 32.07 170.295 28.2667 170.295 24.16C170.295 19.3533 171.509 15.2467 173.935 11.84C176.362 8.38666 179.465 5.79666 183.245 4.07C187.072 2.34333 190.969 1.48 194.935 1.48C199.369 1.48 203.265 2.53 206.625 4.63C209.985 6.68333 212.552 9.41333 214.325 12.82C216.145 16.2267 217.055 19.8433 217.055 23.67C217.055 27.9167 215.935 31.8133 213.695 35.36C211.455 38.9067 208.445 41.7067 204.665 43.76C200.932 45.8133 196.872 46.84 192.485 46.84ZM194.795 45.09C197.409 45.09 199.742 44.3433 201.795 42.85C203.895 41.31 205.529 39.0933 206.695 36.2C207.862 33.26 208.445 29.76 208.445 25.7C208.445 21.4067 207.792 17.58 206.485 14.22C205.179 10.8133 203.289 8.15333 200.815 6.24C198.342 4.32666 195.449 3.37 192.135 3.37C187.889 3.37 184.622 4.98 182.335 8.2C180.049 11.3733 178.905 15.83 178.905 21.57C178.905 26.0967 179.582 30.1567 180.935 33.75C182.335 37.2967 184.225 40.0733 186.605 42.08C189.032 44.0867 191.762 45.09 194.795 45.09ZM260.429 11.21C260.429 8.69 259.846 6.70667 258.679 5.26C257.559 3.81333 255.972 3.09 253.919 3.09C253.826 3.09 253.779 2.95 253.779 2.67C253.779 2.39 253.826 2.25 253.919 2.25L257.279 2.32C259.052 2.41333 260.476 2.46 261.549 2.46C262.436 2.46 263.719 2.41333 265.399 2.32L268.619 2.25C268.712 2.25 268.759 2.39 268.759 2.67C268.759 2.95 268.712 3.09 268.619 3.09C266.799 3.09 265.376 3.81333 264.349 5.26C263.322 6.70667 262.809 8.69 262.809 11.21V30.67C262.809 33.9367 262.086 36.8067 260.639 39.28C259.192 41.7533 257.139 43.6667 254.479 45.02C251.866 46.3267 248.832 46.98 245.379 46.98C241.926 46.98 238.869 46.3267 236.209 45.02C233.549 43.7133 231.449 41.8233 229.909 39.35C228.416 36.83 227.669 33.89 227.669 30.53V7.92C227.669 6.52 227.529 5.49333 227.249 4.84C227.016 4.18666 226.549 3.74333 225.849 3.51C225.196 3.23 224.146 3.09 222.699 3.09C222.559 3.09 222.489 2.95 222.489 2.67C222.489 2.39 222.559 2.25 222.699 2.25L226.409 2.32C228.556 2.41333 230.259 2.46 231.519 2.46C232.919 2.46 234.692 2.41333 236.839 2.32L240.409 2.25C240.549 2.25 240.619 2.39 240.619 2.67C240.619 2.95 240.549 3.09 240.409 3.09C238.962 3.09 237.889 3.23 237.189 3.51C236.536 3.79 236.069 4.28 235.789 4.98C235.556 5.63333 235.439 6.66 235.439 8.06V28.08C235.439 33.6333 236.536 37.74 238.729 40.4C240.922 43.06 244.026 44.39 248.039 44.39C251.912 44.39 254.946 43.2233 257.139 40.89C259.332 38.51 260.429 35.1267 260.429 30.74V11.21ZM285.218 3.86C279.664 3.86 275.674 7.47666 273.248 14.71C273.201 14.85 273.061 14.92 272.828 14.92C272.594 14.8733 272.478 14.78 272.478 14.64C272.664 12.7733 272.874 10.37 273.108 7.43C273.341 4.44333 273.458 2.20333 273.458 0.709999C273.458 0.476666 273.574 0.359999 273.808 0.359999C274.088 0.359999 274.228 0.476666 274.228 0.709999C274.228 1.73667 275.558 2.25 278.218 2.25C282.231 2.39 286.921 2.46 292.288 2.46C295.041 2.46 297.958 2.41333 301.038 2.32L305.798 2.25C307.571 2.25 308.854 2.13333 309.648 1.9C310.488 1.66666 311.024 1.2 311.258 0.499997C311.304 0.31333 311.444 0.219997 311.678 0.219997C311.958 0.219997 312.098 0.31333 312.098 0.499997C311.958 1.9 311.794 4.14 311.608 7.22C311.468 10.3 311.398 12.7733 311.398 14.64C311.398 14.78 311.281 14.85 311.048 14.85C310.814 14.85 310.674 14.78 310.628 14.64C309.928 11.0467 308.621 8.36333 306.708 6.59C304.794 4.77 302.438 3.86 299.638 3.86C298.284 3.86 297.374 4.16333 296.908 4.77C296.488 5.33 296.278 6.42666 296.278 8.06V40.33C296.278 41.7767 296.418 42.8267 296.698 43.48C296.978 44.1333 297.514 44.5767 298.308 44.81C299.101 45.0433 300.361 45.16 302.088 45.16C302.228 45.16 302.298 45.3 302.298 45.58C302.298 45.86 302.228 46 302.088 46C300.408 46 299.078 45.9767 298.098 45.93L292.288 45.86L286.618 45.93C285.638 45.9767 284.284 46 282.558 46C282.418 46 282.348 45.86 282.348 45.58C282.348 45.3 282.418 45.16 282.558 45.16C284.238 45.16 285.474 45.0433 286.268 44.81C287.108 44.5767 287.668 44.1333 287.948 43.48C288.274 42.78 288.438 41.73 288.438 40.33V7.92C288.438 6.33333 288.228 5.26 287.808 4.7C287.388 4.14 286.524 3.86 285.218 3.86ZM330.548 40.33C330.548 41.7767 330.665 42.8267 330.898 43.48C331.132 44.1333 331.575 44.5767 332.228 44.81C332.928 45.0433 334.025 45.16 335.518 45.16C335.658 45.16 335.728 45.3 335.728 45.58C335.728 45.86 335.658 46 335.518 46C333.978 46 332.765 45.9767 331.878 45.93L326.558 45.86L321.378 45.93C320.445 45.9767 319.185 46 317.598 46C317.505 46 317.458 45.86 317.458 45.58C317.458 45.3 317.505 45.16 317.598 45.16C319.092 45.16 320.188 45.0433 320.888 44.81C321.588 44.5767 322.055 44.1333 322.288 43.48C322.568 42.78 322.708 41.73 322.708 40.33V7.92C322.708 6.52 322.568 5.49333 322.288 4.84C322.055 4.18666 321.588 3.74333 320.888 3.51C320.188 3.23 319.092 3.09 317.598 3.09C317.505 3.09 317.458 2.95 317.458 2.67C317.458 2.39 317.505 2.25 317.598 2.25L321.378 2.32C323.525 2.41333 325.252 2.46 326.558 2.46C328.005 2.46 329.802 2.41333 331.948 2.32L335.518 2.25C335.658 2.25 335.728 2.39 335.728 2.67C335.728 2.95 335.658 3.09 335.518 3.09C334.072 3.09 332.998 3.23 332.298 3.51C331.598 3.79 331.132 4.28 330.898 4.98C330.665 5.63333 330.548 6.66 330.548 8.06V40.33ZM424.544 60.42C424.684 60.3733 424.777 60.4667 424.824 60.7C424.917 60.9333 424.917 61.0733 424.824 61.12C422.117 61.7267 419.271 62.03 416.284 62.03C408.164 62.03 399.811 60.63 391.224 57.83C382.684 55.03 374.657 51.32 367.144 46.7C365.837 46.7933 364.857 46.84 364.204 46.84C359.864 46.84 355.991 45.8367 352.584 43.83C349.224 41.7767 346.611 39.0233 344.744 35.57C342.924 32.07 342.014 28.2667 342.014 24.16C342.014 19.3533 343.227 15.2467 345.654 11.84C348.081 8.38666 351.184 5.79666 354.964 4.07C358.791 2.34333 362.687 1.48 366.654 1.48C371.087 1.48 374.984 2.53 378.344 4.63C381.704 6.68333 384.271 9.41333 386.044 12.82C387.864 16.2267 388.774 19.8433 388.774 23.67C388.774 28.1033 387.561 32.1633 385.134 35.85C382.707 39.49 379.487 42.29 375.474 44.25L376.244 44.11C381.751 47.89 388.354 51.5767 396.054 55.17C403.801 58.81 411.944 60.63 420.484 60.63C422.164 60.63 423.517 60.56 424.544 60.42ZM350.624 21.57C350.624 26.0967 351.301 30.1567 352.654 33.75C354.054 37.2967 355.944 40.0733 358.324 42.08C360.751 44.0867 363.481 45.09 366.514 45.09C369.127 45.09 371.461 44.3433 373.514 42.85C375.614 41.31 377.247 39.0933 378.414 36.2C379.581 33.26 380.164 29.76 380.164 25.7C380.164 21.4067 379.511 17.58 378.204 14.22C376.897 10.8133 375.007 8.15333 372.534 6.24C370.061 4.32666 367.167 3.37 363.854 3.37C359.607 3.37 356.341 4.98 354.054 8.2C351.767 11.3733 350.624 15.83 350.624 21.57ZM432.148 11.21C432.148 8.69 431.564 6.70667 430.398 5.26C429.278 3.81333 427.691 3.09 425.638 3.09C425.544 3.09 425.498 2.95 425.498 2.67C425.498 2.39 425.544 2.25 425.638 2.25L428.998 2.32C430.771 2.41333 432.194 2.46 433.268 2.46C434.154 2.46 435.438 2.41333 437.118 2.32L440.338 2.25C440.431 2.25 440.478 2.39 440.478 2.67C440.478 2.95 440.431 3.09 440.338 3.09C438.518 3.09 437.094 3.81333 436.068 5.26C435.041 6.70667 434.528 8.69 434.528 11.21V30.67C434.528 33.9367 433.804 36.8067 432.358 39.28C430.911 41.7533 428.858 43.6667 426.198 45.02C423.584 46.3267 420.551 46.98 417.098 46.98C413.644 46.98 410.588 46.3267 407.928 45.02C405.268 43.7133 403.168 41.8233 401.628 39.35C400.134 36.83 399.388 33.89 399.388 30.53V7.92C399.388 6.52 399.248 5.49333 398.968 4.84C398.734 4.18666 398.268 3.74333 397.568 3.51C396.914 3.23 395.864 3.09 394.418 3.09C394.278 3.09 394.208 2.95 394.208 2.67C394.208 2.39 394.278 2.25 394.418 2.25L398.128 2.32C400.274 2.41333 401.978 2.46 403.238 2.46C404.638 2.46 406.411 2.41333 408.558 2.32L412.128 2.25C412.268 2.25 412.338 2.39 412.338 2.67C412.338 2.95 412.268 3.09 412.128 3.09C410.681 3.09 409.608 3.23 408.908 3.51C408.254 3.79 407.788 4.28 407.508 4.98C407.274 5.63333 407.158 6.66 407.158 8.06V28.08C407.158 33.6333 408.254 37.74 410.448 40.4C412.641 43.06 415.744 44.39 419.758 44.39C423.631 44.39 426.664 43.2233 428.858 40.89C431.051 38.51 432.148 35.1267 432.148 30.74V11.21ZM476.116 34.87C476.116 34.7767 476.21 34.73 476.396 34.73C476.536 34.73 476.653 34.7767 476.746 34.87C476.886 34.9167 476.956 34.9633 476.956 35.01C476.49 38.65 476.256 41.9633 476.256 44.95C476.256 45.3233 476.186 45.6033 476.046 45.79C475.906 45.93 475.626 46 475.206 46H444.266C444.126 46 444.056 45.86 444.056 45.58C444.056 45.3 444.126 45.16 444.266 45.16C445.76 45.16 446.833 45.0433 447.486 44.81C448.186 44.5767 448.653 44.1333 448.886 43.48C449.12 42.78 449.236 41.73 449.236 40.33V7.92C449.236 6.52 449.12 5.49333 448.886 4.84C448.653 4.18666 448.186 3.74333 447.486 3.51C446.786 3.23 445.713 3.09 444.266 3.09C444.126 3.09 444.056 2.95 444.056 2.67C444.056 2.39 444.126 2.25 444.266 2.25H473.946C474.413 2.25 474.646 2.46 474.646 2.88L474.786 12.19C474.786 12.2833 474.646 12.3533 474.366 12.4C474.133 12.4467 473.993 12.4 473.946 12.26C473.2 9.55333 471.94 7.54667 470.166 6.24C468.393 4.93333 466.06 4.28 463.166 4.28H461.066C459.666 4.28 458.64 4.58333 457.986 5.19C457.333 5.79666 457.006 6.73 457.006 7.99V22.27H462.816C465.523 22.27 467.6 21.8033 469.046 20.87C470.493 19.9367 471.216 18.63 471.216 16.95C471.216 16.81 471.333 16.74 471.566 16.74C471.846 16.74 471.986 16.81 471.986 16.95L471.916 23.25L471.986 26.61C472.08 28.1967 472.126 29.4567 472.126 30.39C472.126 30.4833 471.986 30.53 471.706 30.53C471.426 30.53 471.286 30.4833 471.286 30.39C471.286 28.4767 470.54 26.9833 469.046 25.91C467.6 24.79 465.5 24.23 462.746 24.23H457.006V40.05C457.006 41.4033 457.263 42.4067 457.776 43.06C458.29 43.7133 459.106 44.04 460.226 44.04H462.536C466.176 44.04 469.093 43.2933 471.286 41.8C473.48 40.3067 475.09 37.9967 476.116 34.87Z" fill="#E6A601"/>
</svg>
