<svg width="152" height="152" viewBox="0 0 152 152" fill="none" xmlns="http://www.w3.org/2000/svg">
<g clip-path="url(#clip0_9431_189)">
<path d="M129.85 22.0887C115.561 7.8529 96.5611 0.0086856 76.318 0C34.6038 0 0.656939 33.7867 0.640238 75.3155C0.635378 88.5903 4.11924 101.548 10.7411 112.971L0.00488281 152L40.1225 141.527C51.1757 147.528 63.6208 150.691 76.2854 150.696H76.3176H76.318C118.025 150.696 151.977 116.903 151.995 75.3765C152.002 55.2497 144.137 36.3255 129.85 22.0887ZM76.318 137.975H76.2934C65.0048 137.969 53.9348 134.952 44.2791 129.247L41.9812 127.891L18.1746 134.105L24.5306 111.005L23.0335 108.636C16.7366 98.6682 13.4124 87.1487 13.4171 75.3203C13.431 40.803 41.6463 12.7216 76.3418 12.7216C93.1432 12.7285 108.934 19.2487 120.811 31.0811C132.687 42.9133 139.222 58.6427 139.217 75.3712C139.202 109.89 110.986 137.975 76.318 137.975Z" fill="#E0E0E0"/>
<path d="M3.47888 147.669L13.7247 110.423C7.40368 99.5224 4.07959 87.1553 4.08358 74.4893C4.10015 34.8584 36.4967 2.61597 76.3019 2.61597C95.6212 2.62465 113.754 10.1102 127.387 23.696C141.023 37.2818 148.528 55.3403 148.52 74.5455C148.503 114.177 116.105 146.423 76.3047 146.423C76.3019 146.423 76.3067 146.423 76.3047 146.423H76.2726C64.1865 146.419 52.3108 143.398 41.7632 137.675L3.47888 147.669Z" fill="url(#paint0_linear_9431_189)"/>
<g filter="url(#filter0_d_9431_189)">
<path fill-rule="evenodd" clip-rule="evenodd" d="M57.6173 43.3404C56.2172 40.2413 54.7431 40.1792 53.4111 40.125C52.3216 40.0785 51.0743 40.0813 49.829 40.0813C48.5827 40.0813 46.5575 40.5476 44.8449 42.4098C43.1312 44.272 38.3019 48.7738 38.3019 57.9295C38.3019 67.0862 45.0007 75.9338 45.9344 77.1764C46.8691 78.4172 58.8656 97.8067 77.8645 105.266C93.6543 111.465 96.8675 110.232 100.295 109.922C103.722 109.612 111.354 105.421 112.911 101.075C114.469 96.7306 114.469 93.0063 114.002 92.2278C113.535 91.4523 112.288 90.987 110.419 90.0564C108.549 89.1258 99.3601 84.6231 97.6464 84.0027C95.9328 83.3823 94.6865 83.0721 93.4402 84.9353C92.1939 86.7965 88.6137 90.987 87.5232 92.2278C86.4327 93.4715 85.3422 93.6266 83.4728 92.696C81.6034 91.7625 75.5832 89.7994 68.4415 83.4597C62.8848 78.5275 59.1333 72.4359 58.0428 70.5729C56.9523 68.7117 57.9259 67.7035 58.8636 66.7758C59.7028 65.9421 60.733 64.6034 61.6677 63.5167C62.6004 62.43 62.912 61.6545 63.5351 60.4137C64.1583 59.1709 63.8467 58.0843 63.3794 57.1537C62.912 56.2231 59.2793 47.0201 57.6173 43.3404Z" fill="black"/>
<path d="M87.5232 92.2278C86.4327 93.4715 85.3422 93.6266 83.4728 92.696C83.1659 92.5427 82.7472 92.3618 82.23 92.1382C79.5967 91.0001 74.4109 88.7587 68.4415 83.4597C62.8848 78.5275 59.1333 72.4359 58.0428 70.5729M87.5232 92.2278L53.4111 40.125C54.7431 40.1792 56.2172 40.2413 57.6173 43.3404C58.574 45.4586 60.1838 49.4071 61.4668 52.5542C62.4127 54.8743 63.181 56.7588 63.3794 57.1537C63.8467 58.0843 64.1583 59.1709 63.5351 60.4137C63.4417 60.5997 63.3553 60.7753 63.2727 60.943C62.8046 61.894 62.4606 62.5929 61.6677 63.5167M87.5232 92.2278L87.8992 92.5575M87.5232 92.2278L87.8988 92.5579C87.8989 92.5577 87.8991 92.5576 87.8992 92.5575M58.0428 70.5729C56.9523 68.7117 57.9259 67.7035 58.8636 66.7758M58.0428 70.5729L57.6113 70.8254L57.6114 70.8256M58.0428 70.5729L57.6114 70.8256M58.8636 66.7758C59.4237 66.2193 60.069 65.4379 60.7141 64.6565C61.0355 64.2673 61.3569 63.878 61.6677 63.5167M58.8636 66.7758L58.5119 66.4203C58.5118 66.4204 58.5117 66.4205 58.5117 66.4206C58.5115 66.4207 58.5113 66.4209 58.5112 66.4211L58.8636 66.7758ZM61.6677 63.5167L61.2886 63.1906C61.2885 63.1908 61.2884 63.1909 61.2883 63.191L61.6677 63.5167ZM57.1616 43.5462C56.4863 42.0514 55.8259 41.3627 55.2388 41.0239C54.648 40.6831 54.064 40.652 53.3907 40.6246L53.3897 40.6246C52.3709 40.581 51.21 40.5812 50.0294 40.5813C49.9626 40.5813 49.8958 40.5813 49.829 40.5813C48.6967 40.5813 46.8147 41.0066 45.2129 42.7483L45.2128 42.7484C45.1026 42.8681 44.98 42.9983 44.8471 43.1394C42.9157 45.1905 38.8019 49.5591 38.8019 57.9295C38.8019 62.3948 40.4383 66.8137 42.2134 70.2935C43.9601 73.7177 45.8194 76.1913 46.3139 76.8491L46.3337 76.8756L57.1616 43.5462ZM57.1616 43.5462C57.988 45.3759 59.3078 48.5869 60.4834 51.467C60.6606 51.901 60.8348 52.3284 61.0037 52.7428C61.9464 55.0552 62.7245 56.9639 62.9325 57.3781C63.3685 58.2462 63.6087 59.1513 63.0883 60.1893L57.1616 43.5462ZM57.6114 70.8256C58.7104 72.7033 62.4937 78.8489 68.1096 83.8336C74.1477 89.1937 79.4187 91.4695 82.0395 92.601C82.5466 92.8199 82.9544 92.996 83.2494 93.1433L83.25 93.1436C84.2176 93.6253 85.0639 93.8689 85.8503 93.7736C86.6572 93.6758 87.3059 93.2341 87.8992 92.5575M57.6114 70.8256L46.3341 76.8761C46.4093 76.9759 46.5491 77.1819 46.7519 77.4807C49.1838 81.0635 60.6634 97.9754 78.0473 104.801C85.9261 107.894 90.634 109.119 93.7817 109.539C96.3041 109.876 97.8217 109.699 99.2308 109.534C99.5725 109.494 99.9079 109.455 100.25 109.424C101.847 109.279 104.531 108.203 107.033 106.592C109.542 104.976 111.72 102.918 112.441 100.907C113.205 98.7753 113.585 96.8003 113.718 95.271C113.784 94.5058 113.788 93.8599 113.749 93.3669C113.708 92.8475 113.625 92.5726 113.574 92.4857C113.414 92.2204 113.09 91.9634 112.497 91.6391C112.138 91.4431 111.725 91.2451 111.243 91.0135C110.926 90.8612 110.578 90.6943 110.196 90.504C109.264 90.0398 106.501 88.6825 103.758 87.3639C100.998 86.0375 98.3028 84.772 97.4762 84.4728C96.6044 84.1572 95.9724 83.9719 95.4248 84.0344C94.9322 84.0906 94.4249 84.3625 93.8558 85.2133L93.8557 85.2135C92.5878 87.107 88.9847 91.3223 87.8992 92.5575" stroke="black"/>
</g>
<path d="M129.232 21.8494C115.107 7.77698 96.3251 0.0229698 76.3145 0.0141602C35.0791 0.0141602 1.5219 33.413 1.50532 74.465C1.50046 87.5876 4.94432 100.397 11.4902 111.688L0.877319 150.269L40.5344 139.916C51.4609 145.849 63.7631 148.975 76.2824 148.98H76.3141H76.3145C117.543 148.98 151.105 115.575 151.123 74.5251C151.13 54.6297 143.355 35.9228 129.232 21.8494ZM76.3145 136.405H76.2902C65.1311 136.399 54.1881 133.417 44.6433 127.778L42.3717 126.437L18.8384 132.58L25.1214 109.745L23.6414 107.404C17.4169 97.5498 14.1308 86.1625 14.1357 74.47C14.1492 40.349 42.0407 12.5899 76.3379 12.5899C92.9467 12.5967 108.556 19.0421 120.297 30.7386C132.036 42.4351 138.496 57.9838 138.491 74.5205C138.477 108.642 110.584 136.405 76.3145 136.405Z" fill="white"/>
</g>
<defs>
<filter id="filter0_d_9431_189" x="34.3019" y="40.0813" width="83.9723" height="78.1489" filterUnits="userSpaceOnUse" color-interpolation-filters="sRGB">
<feFlood flood-opacity="0" result="BackgroundImageFix"/>
<feColorMatrix in="SourceAlpha" type="matrix" values="0 0 0 0 0 0 0 0 0 0 0 0 0 0 0 0 0 0 127 0" result="hardAlpha"/>
<feOffset dy="4"/>
<feGaussianBlur stdDeviation="2"/>
<feComposite in2="hardAlpha" operator="out"/>
<feColorMatrix type="matrix" values="0 0 0 0 0 0 0 0 0 0 0 0 0 0 0 0 0 0 0.25 0"/>
<feBlend mode="normal" in2="BackgroundImageFix" result="effect1_dropShadow_9431_189"/>
<feBlend mode="normal" in="SourceGraphic" in2="effect1_dropShadow_9431_189" result="shape"/>
</filter>
<linearGradient id="paint0_linear_9431_189" x1="75.9995" y1="147.669" x2="75.9995" y2="2.61621" gradientUnits="userSpaceOnUse">
<stop/>
<stop offset="0.9999" stop-color="#00FF16"/>
<stop offset="1" stop-color="#60D66A"/>
</linearGradient>
<clipPath id="clip0_9431_189">
<rect width="152" height="152" fill="white"/>
</clipPath>
</defs>
</svg>
